<?xml version="1.0" ?><svg id="Слой_1" style="enable-background:new 0 0 512 512;" version="1.1" viewBox="0 0 512 512" xml:space="preserve" xmlns="http://www.w3.org/2000/svg" xmlns:xlink="http://www.w3.org/1999/xlink"><style type="text/css">
	.st0{fill:#234F77;}
	.st1{fill:#0939B2;}
	.st2{fill:#BA0000;}
	.st3{fill:#006BCC;}
	.st4{fill:#E02828;}
	.st5{fill:#1C6C99;}
	.st6{fill:#11AAED;}
	.st7{fill:#132AD3;}
	.st8{fill:#FF8500;}
	.st9{fill:url(#SVGID_1_);}
	.st10{fill:url(#SVGID_2_);}
	.st11{fill:url(#SVGID_3_);}
</style><g><g id="XMLID_4_"><g><path class="st3" d="M159.2,197h-55c-2.8,0-5,2.2-5,5v199c0,2.8,2.2,5,5,5h55c2.8,0,5-2.2,5-5V202     C164.2,199.3,161.9,197,159.2,197z M166.3,138.9c-0.4-18.8-13.7-32.9-34.6-32.9s-34.6,14.1-34.2,32.9     c-0.4,17.9,13.3,32.5,33.8,32.5C152.6,171.4,166.3,156.9,166.3,138.9z M266.4,197h-46.7c-2.9,0-5.1,2.4-5,5.2     c0.8,17.3,1.5,37.8,1.5,61.4V401c0,2.8,2.2,5,5,5h55c2.8,0,5-2.2,5-5V285.5c0-6,0.9-12.4,2.6-16.2c4.3-12,15-24.4,32.9-24.4     c23.5,0,32.9,18.4,32.9,45.3V401c0,2.8,2.2,5,5,5h55c2.8,0,5-2.2,5-5c0-39.6,0-79.3,0-118.9c0-61.5-32.1-89.7-74.8-89.7     c-33.7,0-54.8,19-63.8,32.3c-0.4,0.7-1.2,1.1-2,1.1h0c-0.8-8.1-1.7-16.1-2.5-24.2C271.1,199,269,197,266.4,197z M256,8.4     c136.8,0,247.6,110.9,247.6,247.6S392.8,503.6,256,503.6S8.4,392.8,8.4,256S119.2,8.4,256,8.4z"/></g></g></g></svg>